<?xml version="1.0" encoding="UTF-8"?> <!-- Generator: Adobe Illustrator 25.4.1, SVG Export Plug-In . SVG Version: 6.00 Build 0) --> <svg xmlns="http://www.w3.org/2000/svg" xmlns:xlink="http://www.w3.org/1999/xlink" version="1.1" id="Layer_1" x="0px" y="0px" viewBox="0 0 274 369.9" style="enable-background:new 0 0 274 369.9;" xml:space="preserve"> <g> <g> <path d="M18.9,369.4c-0.9-0.5-1.9-1-2.8-1.5c-4.2-2.4-6.4-6.1-6.6-10.9C9,343.6,16,333.6,28.8,329.4c0.5-0.1,0.9-0.4,1.4-0.6 c0-98.7,0-197.3,0-296.3c-0.8-0.3-1.6-0.6-2.5-0.8C20,29.4,15.1,22,16.1,14c1-7.8,7.7-13.8,15.9-14c1,0,1.9,0,2.9,0 C104.6,0,174.3,0,244,0c2.1,0,4.4,0.1,6.4,0.6c7.2,1.7,12.1,7.9,12.3,15c0.2,7.4-4.5,13.9-11.6,16c-0.9,0.3-1.8,0.5-2.9,0.8 c0,1.6,0,3,0,4.4c0,74.7,0,149.3,0,224c0,1.2,0.1,2.4,0,3.6c-0.3,3.1-2.5,5.3-5.3,5.3c-2.9,0-5.1-2.1-5.4-5.2 c-0.1-1.2,0-2.4,0-3.6c0-74.7,0-149.3,0-224c0-1.4,0-2.8,0-4.7c-1.7,0-3.1,0-4.5,0c-47.1,0-94.3,0-141.4,0c-1.3,0-2.7,0.1-4-0.1 c-3.1-0.5-4.9-2.8-4.7-5.8c0.2-2.8,2.2-4.7,5.2-4.9c1.2-0.1,2.4,0,3.6,0c50.6,0,101.2,0,151.8,0c1.3,0,2.7,0.1,3.9-0.2 c2.8-0.5,4.5-2.8,4.4-5.4c-0.1-2.6-2-4.7-4.7-5.1c-0.9-0.1-1.9-0.1-2.9-0.1c-70,0-139.9,0-209.9,0c-1.1,0-2.2-0.1-3.2,0.1 c-2.5,0.5-4.2,2.6-4.3,5.1c0,2.4,1.3,4.4,3.8,5.1c1.2,0.3,2.6,0.4,3.9,0.4c9.3,0,18.5,0,27.8,0c3.6,0,5.7,1.9,5.9,5 c0.2,3.3-2.1,5.7-5.9,5.8c-5.6,0.1-11.3,0-17,0c-1.2,0-2.4,0-3.8,0c0,98.7,0,197.2,0,295.9c65.2,0,130.3,0,196,0 c0-1.2,0-2.5,0-3.8c0-10.8,0-21.6,0-32.5c0-1-0.1-1.9,0.1-2.9c0.4-2.8,2.7-4.9,5.4-4.9c2.7,0,5,2.1,5.3,4.9 c0.1,1.1,0.1,2.2,0.1,3.2c0,12,0,24,0,36.3c0.9,0.3,1.8,0.7,2.6,1c12,4,19.6,15.7,18.2,28.3c-0.5,4.5-2.8,7.9-6.8,10 c-0.8,0.4-1.6,0.9-2.4,1.4C179.5,369.4,99.2,369.4,18.9,369.4z M139.2,358.5c37.9,0,75.7,0,113.6,0c1,0,1.9,0,2.9,0 c1.8,0.1,2.5-0.8,2.7-2.6c0.5-7.1-4.1-14.1-11-16c-2.2-0.6-4.5-0.7-6.8-0.7c-67.6,0-135.1,0-202.7,0c-1.6,0-3.1,0.1-4.7,0.3 c-7,1.1-12.1,6.6-12.9,13.6c-0.5,4.9-0.1,5.3,4.8,5.3C63.3,358.5,101.2,358.5,139.2,358.5z"></path> <path d="M139.5,54c23.5,0,47.1,0,70.6,0c1.8,0,3.6,0,5.4,0.4c5.4,1.3,8.9,6.1,9,12c0.1,12.6,0,25.2,0,37.8c0,10.1,0,20.2,0,30.3 c0,8.3-4.9,13.3-13.2,13.3c-47.9,0-95.9,0-143.8,0c-8.3,0-13.2-4.9-13.2-13.2c0-22.5,0.1-44.9-0.1-67.4 c-0.1-6.7,4.7-13.4,13.3-13.3C91.4,54.1,115.5,54,139.5,54z M213.5,65.4c-4.4-1-145.8-0.8-148.3,0.2c0,21.5,0,43.1,0,65.3 c1.2-1.4,2.1-2.3,2.9-3.3c12-14.4,23.9-28.9,35.9-43.3c7.2-8.6,17.4-8.7,24.7-0.1c5.7,6.7,11.2,13.5,16.8,20.2 c2.3,2.7,4.6,5.5,6.8,8.2c0.4-0.3,0.5-0.3,0.6-0.4c3.4-4.1,6.7-8.2,10.2-12.1c1.8-2,4-3.9,6.4-5.1c6.2-3,13-1.1,17.8,4.6 c8,9.5,15.8,19,23.7,28.6c0.7,0.8,1.2,1.7,1.8,2.5c0.2-0.2,0.4-0.4,0.6-0.6C213.5,108.5,213.5,87,213.5,65.4z M145.5,121.3 c-8.4-10.2-16.6-20.1-24.8-29.9c-3.1-3.8-5.3-3.7-8.4,0.1c-12,14.4-23.9,28.8-35.9,43.2c-0.5,0.6-1,1.3-1.4,1.9 c0.3,0.3,0.4,0.4,0.4,0.4c18.5,0,37,0.1,55.4,0.1c0.8,0,1.9-0.4,2.5-1.1C137.3,131.2,141.3,126.4,145.5,121.3z M203.9,136.9 c-0.2-0.5-0.2-0.9-0.4-1.1c-8.1-9.8-16.2-19.6-24.4-29.3c-2.5-3-4.9-2.7-7.7,0.7c-7.7,9.2-15.3,18.5-22.9,27.7 c-0.5,0.6-0.8,1.3-1.4,2.1C166.1,136.9,184.9,136.9,203.9,136.9z"></path> <path d="M92.1,251.7c8.8,0,17.5,0,26.3,0c7.3,0,11.7,4.3,11.9,11.6c0.1,8.4,0.1,16.8,0,25.2c-0.1,7.2-4.7,11.6-11.9,11.6 c-17.4,0-34.8,0-52.3,0c-7.3,0-11.8-4.6-11.9-12c0-8.2,0-16.3,0-24.5c0-7.4,4.5-11.9,11.9-11.9C74.8,251.7,83.4,251.7,92.1,251.7z M119.2,289.1c0-9,0-17.7,0-26.4c-18.2,0-36,0-53.9,0c0,8.9,0,17.6,0,26.4C83.3,289.1,101.1,289.1,119.2,289.1z"></path> <path d="M139.4,214c25.6,0,51.2,0,76.8,0c1.3,0,2.7,0,4,0.2c2.4,0.4,4.1,2.3,4.3,4.7c0.2,2.5-1.2,4.8-3.7,5.5 c-1.1,0.3-2.4,0.4-3.6,0.4c-51.9,0-103.8,0-155.8,0c-1.2,0-2.4-0.1-3.6-0.4c-2.4-0.7-3.9-3.1-3.6-5.6c0.2-2.3,2-4.3,4.3-4.6 c1.3-0.2,2.6-0.2,4-0.2C88.2,214,113.8,214,139.4,214z"></path> <path d="M139.4,187.1c-25.6,0-51.2,0-76.8,0c-1.3,0-2.7,0-4-0.2c-2.5-0.4-4.3-2.5-4.4-5c-0.1-2.4,1.3-4.5,3.6-5.2 c1.2-0.4,2.6-0.4,3.9-0.4c51.7,0,103.4,0,155,0c1.3,0,2.7,0.1,3.9,0.4c2.4,0.7,3.9,3.1,3.7,5.5c-0.2,2.3-2,4.3-4.3,4.7 c-1.3,0.2-2.6,0.2-4,0.2C190.6,187.1,165,187.1,139.4,187.1z"></path> <path d="M184.8,289.3c10.8,0,21.6,0,32.4,0c4.7,0,7.3,2,7.2,5.5c-0.1,3.4-2.6,5.3-7.2,5.3c-21.5,0-43,0-64.5,0c-0.4,0-0.7,0-1.1,0 c-3.9-0.1-6.2-2.2-6.1-5.6c0.1-3.2,2.3-5.2,6-5.2C162.7,289.2,173.7,289.3,184.8,289.3z"></path> <path d="M185.3,251.7c10.4,0,20.9,0,31.3,0c1.1,0,2.2-0.1,3.2,0.1c2.4,0.3,4.2,2.2,4.5,4.5c0.4,2.5-1,4.8-3.4,5.7 c-1.1,0.4-2.3,0.5-3.5,0.5c-21.6,0-43.2,0-64.9,0c-1.2,0-2.4-0.1-3.5-0.5c-2.5-0.8-3.8-3-3.5-5.6c0.3-2.5,2.1-4.5,4.7-4.6 c2.9-0.2,5.8-0.1,8.6-0.1C167.8,251.7,176.5,251.7,185.3,251.7z"></path> </g> </g> </svg> 