<?xml version="1.0" encoding="UTF-8"?> <!-- Generator: Adobe Illustrator 19.0.0, SVG Export Plug-In . SVG Version: 6.00 Build 0) --> <svg xmlns="http://www.w3.org/2000/svg" xmlns:xlink="http://www.w3.org/1999/xlink" version="1.1" id="Layer_1" x="0px" y="0px" viewBox="0 0 512 512" style="enable-background:new 0 0 512 512;" xml:space="preserve"> <g> <g> <path d="M512,258.741c0-3.565-1.86-6.87-4.908-8.719l-19.573-11.878l19.573-11.878c3.047-1.849,4.908-5.155,4.908-8.719 s-1.86-6.869-4.908-8.719L250.094,52.862c-3.253-1.975-7.331-1.975-10.584,0L116.5,127.513L15.442,66.958 c-3.152-1.888-7.073-1.935-10.27-0.124C1.976,68.644,0,72.033,0,75.707v215.328c0,3.585,1.882,6.906,4.957,8.749l265.994,159.385 c1.612,0.966,3.426,1.45,5.242,1.45c1.733,0,3.467-0.442,5.028-1.326c3.196-1.81,5.171-5.201,5.171-8.873v-75.255l50.159,30.44 c1.627,0.987,3.46,1.48,5.291,1.48c1.832,0,3.666-0.493,5.291-1.48l159.958-97.073c3.047-1.849,4.908-5.155,4.908-8.719 c0-3.564-1.86-6.869-4.908-8.719l-19.471-11.817l19.471-11.817C510.14,265.61,512,262.306,512,258.741z M265.994,432.419 L20.398,285.256V93.708L265.994,240.87V432.419z M286.393,269.036v-33.945c0-3.585-1.882-6.906-4.957-8.749l-145.151-86.975 l108.518-65.856l237.34,144.034l-140.299,85.142L286.393,269.036z M482.142,258.741l-140.299,85.143l-55.45-33.651v-17.335 l50.159,30.44c1.627,0.987,3.46,1.48,5.291,1.48c1.832,0,3.666-0.493,5.291-1.48l120.725-73.264L482.142,258.741z M341.843,384.954l-55.45-33.651v-17.21l50.159,30.44c1.627,0.987,3.46,1.48,5.291,1.48c1.832,0,3.666-0.493,5.291-1.48 l120.828-73.327l14.181,8.607L341.843,384.954z"></path> </g> </g> <g> <g> <path d="M367.808,219.96L228.487,135.41c-4.819-2.925-11.09-1.387-14.011,3.427c-2.922,4.816-1.387,11.089,3.427,14.011 l139.321,84.549c1.653,1.005,3.478,1.482,5.281,1.482c3.447,0,6.811-1.747,8.729-4.909 C374.157,229.154,372.622,222.882,367.808,219.96z"></path> </g> </g> <g> <g> <path d="M227.601,274.767l-3.167-1.897c-4.831-2.897-11.095-1.325-13.99,3.508c-2.896,4.831-1.325,11.096,3.507,13.99l3.167,1.897 c1.641,0.984,3.447,1.452,5.231,1.452c3.467,0,6.848-1.769,8.759-4.96C234.004,283.926,232.434,277.662,227.601,274.767z"></path> </g> </g> <g> <g> <path d="M190.827,252.731L63.996,176.733c-4.831-2.894-11.096-1.325-13.991,3.506c-2.896,4.831-1.325,11.096,3.508,13.991 l126.83,75.997c1.641,0.983,3.448,1.452,5.232,1.452c3.467,0,6.848-1.769,8.759-4.959 C197.229,261.891,195.658,255.626,190.827,252.731z"></path> </g> </g> <g> <g> <path d="M227.603,330.117L63.996,232.083c-4.831-2.893-11.096-1.325-13.991,3.506c-2.896,4.831-1.325,11.096,3.508,13.991 l163.606,98.034c1.641,0.983,3.448,1.452,5.232,1.452c3.467,0,6.848-1.769,8.759-4.959 C234.005,339.277,232.435,333.013,227.603,330.117z"></path> </g> </g> <g> </g> <g> </g> <g> </g> <g> </g> <g> </g> <g> </g> <g> </g> <g> </g> <g> </g> <g> </g> <g> </g> <g> </g> <g> </g> <g> </g> <g> </g> </svg> 