<?xml version="1.0" encoding="UTF-8"?> <svg xmlns="http://www.w3.org/2000/svg" height="480pt" viewBox="0 -24 480 480" width="480pt"><path d="m472 54.636719c-4.417969 0-8 3.582031-8 8v350.882812l-33.839844-9.042969c-60.132812-15.792968-123.640625-13.003906-182.160156 8v-28.558593c48.597656-18.425781 101.734375-21.222657 152-8l37.839844 10.078125c.691406.082031 1.390625.082031 2.082031 0 1.757813.019531 3.472656-.542969 4.878906-1.597656 1.984375-1.527344 3.136719-3.894532 3.121094-6.402344v-122.078125c0-4.417969-3.582031-8-8-8-4.421875 0-8 3.582031-8 8v112l-27.84375-7.441407c-51.515625-13.460937-105.890625-11.148437-156.078125 6.640626v-335.199219c48.597656-18.425781 101.734375-21.222657 152-8l32 8.480469v191.519531c0 4.417969 3.582031 8 8 8s8-3.582031 8-8v-197.28125c.128906-3.71875-2.328125-7.035157-5.921875-8l-37.917969-9.839844c-54.328125-14.355469-111.816406-11.078125-164.160156 9.359375-52.363281-20.359375-109.824219-23.636719-164.160156-9.359375l-37.917969 10.160156c-3.59375.964844-6.050781 4.28125-5.921875 8v92.960938c0 4.417969 3.582031 8 8 8s8-3.582031 8-8v-87.121094l32-8.480469c50.222656-13.351562 103.359375-10.691406 152 7.601563v335.199219c-50.246094-17.699219-104.648438-19.902344-156.160156-6.320313l-27.839844 7.121094v-216c0-4.417969-3.582031-8-8-8s-8 3.582031-8 8v226.71875c-.019531 2.503906 1.136719 4.875 3.121094 6.402343 1.40625 1.054688 3.121094 1.617188 4.878906 1.597657.691406.078125 1.390625.078125 2.078125 0l37.921875-10.320313c50.265625-13.222656 103.402344-10.425781 152 8v28.082032c-58.519531-21.007813-122.027344-23.796876-182.160156-8l-33.839844 9.121093v-350.882812c0-4.417969-3.582031-8-8-8s-8 3.582031-8 8v361.28125c.0078125 2.476562 1.15625 4.808593 3.121094 6.320312 1.964844 1.539063 4.542968 2.074219 6.957031 1.441407l43.921875-11.761719c60.195312-15.921875 123.914062-12.078125 181.761719 10.960937l1.117187.398438c1.902344.757812 4.019532.757812 5.921875 0l1.121094-.398438c57.941406-23.109375 121.78125-26.953125 182.078125-10.960937l43.921875 12c.6875.078125 1.386719.078125 2.078125 0 4.417969 0 8-3.582031 8-8v-361.28125c0-4.417969-3.582031-8-8-8zm0 0"></path><path d="m416 63.917969c-.003906-3.460938-2.230469-6.527344-5.519531-7.601563l-17.359375-5.597656c-16.398438-5.359375-33.914063-6.324219-50.800782-2.800781-3.753906.804687-6.40625 4.164062-6.320312 8v72c.074219 2.433593 1.25 4.699219 3.199219 6.160156 1.976562 1.523437 4.519531 2.105469 6.960937 1.601563 14.007813-2.949219 28.542969-2.175782 42.160156 2.238281l17.199219 5.601562c.804688.246094 1.640625.382813 2.480469.398438 1.691406-.023438 3.332031-.554688 4.71875-1.519531 2.070312-1.511719 3.289062-3.921876 3.28125-6.480469zm-16 60.960937-6.71875-2.160156c-9.761719-3.195312-19.96875-4.816406-30.242188-4.800781-3.6875.015625-7.375.226562-11.039062.640625v-56c12.148438-1.601563 24.5-.480469 36.160156 3.28125l11.839844 3.839844zm0 0"></path><path d="m202.160156 199.917969c-38.011718-10.878907-78.308594-10.878907-116.320312 0-4.417969 1.191406-7.03125 5.742187-5.839844 10.160156s5.742188 7.03125 10.160156 5.839844c35.1875-10.078125 72.492188-10.078125 107.679688 0 .714844.117187 1.445312.117187 2.160156 0 4.417969.597656 8.484375-2.5 9.078125-6.921875.597656-4.417969-2.5-8.480469-6.917969-9.078125zm0 0"></path><path d="m202.160156 239.917969c-38.011718-10.878907-78.308594-10.878907-116.320312 0-4.417969 1.191406-7.03125 5.742187-5.839844 10.160156s5.742188 7.03125 10.160156 5.839844c35.1875-10.078125 72.492188-10.078125 107.679688 0 .714844.117187 1.445312.117187 2.160156 0 4.417969.597656 8.484375-2.5 9.078125-6.921875.597656-4.417969-2.5-8.480469-6.917969-9.078125zm0 0"></path><path d="m202.160156 279.917969c-38.011718-10.878907-78.308594-10.878907-116.320312 0-4.417969 1.191406-7.03125 5.742187-5.839844 10.160156s5.742188 7.03125 10.160156 5.839844c35.1875-10.078125 72.492188-10.078125 107.679688 0 .714844.117187 1.445312.117187 2.160156 0 4.417969.597656 8.484375-2.5 9.078125-6.921875.597656-4.417969-2.5-8.480469-6.917969-9.078125zm0 0"></path><path d="m272 79.917969h1.921875l32-8c4.417969-1.058594 7.136719-5.5 6.078125-9.921875-1.058594-4.417969-5.5-7.136719-9.921875-6.078125l-32 8c-4.417969.53125-7.566406 4.542969-7.039063 8.960937.53125 4.417969 4.542969 7.570313 8.960938 7.039063zm0 0"></path><path d="m264 105.839844c1.0625 4.28125 5.394531 6.894531 9.679688 5.839844l32-8c4.351562-.996094 7.074218-5.328126 6.082031-9.683594-.996094-4.351563-5.328125-7.070313-9.683594-6.078125l-32 8c-2.152344.453125-4.027344 1.773437-5.175781 3.648437-1.152344 1.878906-1.476563 4.144532-.902344 6.273438zm0 0"></path><path d="m264 145.839844c1.0625 4.28125 5.394531 6.894531 9.679688 5.839844l32-8c4.351562-.996094 7.074218-5.328126 6.082031-9.683594-.996094-4.351563-5.328125-7.070313-9.683594-6.078125l-32 8c-2.152344.453125-4.027344 1.773437-5.175781 3.648437-1.152344 1.878906-1.476563 4.144532-.902344 6.273438zm0 0"></path><path d="m275.28125 342.398438c1.386719.964843 3.027344 1.496093 4.71875 1.519531.824219.113281 1.65625.113281 2.480469 0l17.199219-5.601563c13.757812-4.515625 28.460937-5.34375 42.640624-2.398437 2.367188.511719 4.835938-.078125 6.71875-1.601563 1.925782-1.558594 3.019532-3.921875 2.960938-6.398437v-72c.085938-3.835938-2.566406-7.195313-6.320312-8-16.871094-3.578125-34.386719-2.667969-50.800782 2.640625l-17.359375 5.597656c-3.347656 1.09375-5.585937 4.242188-5.519531 7.761719v72c-.007812 2.558593 1.210938 4.96875 3.28125 6.480469zm12.71875-72.640626 11.839844-3.839843c11.660156-3.761719 24.011718-4.878907 36.160156-3.28125v56c-13.898438-1.585938-27.976562-.167969-41.28125 4.160156l-6.71875 2.160156zm0 0"></path><path d="m272 186.078125c1.203125 4.234375 5.601562 6.699219 9.839844 5.519531 35.1875-10.078125 72.496094-10.078125 107.679687 0 .800781.261719 1.640625.371094 2.480469.320313 4.417969.597656 8.484375-2.5 9.078125-6.921875.597656-4.417969-2.5-8.480469-6.917969-9.078125-38.011718-10.878907-78.308594-10.878907-116.320312 0-2.164063.5-4.027344 1.878906-5.132813 3.808593-1.109375 1.925782-1.363281 4.226563-.707031 6.351563zm0 0"></path><path d="m392 231.917969c4.417969.597656 8.484375-2.5 9.078125-6.921875.597656-4.417969-2.5-8.480469-6.917969-9.078125-38.011718-10.878907-78.308594-10.878907-116.320312 0-4.417969 1.191406-7.03125 5.742187-5.839844 10.160156s5.742188 7.03125 10.160156 5.839844c35.1875-10.078125 72.492188-10.078125 107.679688 0 .714844.117187 1.445312.117187 2.160156 0zm0 0"></path><path d="m374.078125 271.917969 32 8c2.128906.574219 4.394531.25 6.273437-.902344 1.875-1.148437 3.195313-3.023437 3.648438-5.175781.574219-2.128906.25-4.394532-.902344-6.273438-1.148437-1.875-3.023437-3.195312-5.175781-3.648437l-32-8c-4.421875-1.058594-8.863281 1.660156-9.921875 6.078125-1.058594 4.421875 1.660156 8.863281 6.078125 9.921875zm0 0"></path><path d="m200 103.917969c4.417969 0 8-3.582031 8-8v-24c.136719-3.695313-2.277344-7.003907-5.839844-8-38.011718-10.878907-78.308594-10.878907-116.320312 0-3.5625.996093-5.976563 4.304687-5.839844 8v96c0 2.519531 1.1875 4.890625 3.199219 6.398437 1.996093 1.488282 4.566406 1.960938 6.960937 1.28125 35.1875-10.078125 72.492188-10.078125 107.679688 0 .699218.222656 1.425781.332032 2.160156.320313 4.417969 0 8-3.582031 8-8v-40c0-4.417969-3.582031-8-8-8s-8 3.582031-8 8v29.679687c-31.578125-7.359375-64.421875-7.359375-96 0v-79.519531c31.5-8 64.5-8 96 0v17.839844c0 4.417969 3.582031 8 8 8zm0 0"></path></svg> 