<?xml version="1.0" encoding="UTF-8"?> <!-- Generator: Adobe Illustrator 25.4.1, SVG Export Plug-In . SVG Version: 6.00 Build 0) --> <svg xmlns="http://www.w3.org/2000/svg" xmlns:xlink="http://www.w3.org/1999/xlink" version="1.1" id="Layer_1" x="0px" y="0px" viewBox="0 0 393 266.9" style="enable-background:new 0 0 393 266.9;" xml:space="preserve"> <g> <g> <path d="M3.7,42.9c2.9-8.8,9.3-14.7,17.2-18.8c6.6-3.4,13.6-6.2,20.5-9c3.4-1.4,6.4,0.2,7.5,3.3c1,2.9-0.4,5.7-3.7,7.1 c-5,2.1-10.3,3.9-15.1,6.4c-4,2.1-8,4.7-11.4,7.8c-5.2,4.7-4.9,8.8,0.1,13.7c4.6,4.4,10.1,7.2,15.9,9.7c12,5.3,24.6,8.7,37.4,11.5 c14.5,3.2,29.1,5.4,44.2,7.1c0.1-1,0.3-2,0.3-2.9c-0.1-16.2-0.3-32.4-0.5-48.6C116,20,107.7,12.5,97.6,13.7 c-8,1-15.9,2.8-23.9,4.2c-1.2,0.2-2.4,0.6-3.7,0.8c-3.2,0.5-5.9-1.3-6.5-4.2c-0.7-3.1,0.8-5.9,4-6.6C73.7,6.4,80,5.2,86.2,4 c3.8-0.7,7.6-1.4,11.5-1.7c15.7-1.1,29.4,11.3,29.7,27.1c0.3,16.7,0.4,33.4,0.6,50.1c0,1,0.1,2,0.2,3.4c4.2,0.4,8.4,0.8,12.6,1.1 c2.9,0.2,5.7,0.3,8.6,0.7c3.5,0.4,5.5,2.8,5.2,6c-0.3,3.1-2.7,5.3-6.2,5.1c-6.1-0.4-12.2-0.6-18.3-1.4 c-18.8-2.5-37.6-4.9-56.2-8.1c-20.1-3.4-39.5-9.5-57-20.4c-0.4-0.2-0.9-0.4-1.7-0.7c0,1.6,0,2.8,0,3.9c0,46.4,0,92.8-0.1,139.2 c0,4.4,1.5,7.7,5.2,10.6c0.8-1.1,1.6-2.1,2.4-3.2c22.4-32.3,44.8-64.5,67.2-96.8c0.2-0.3,0.5-0.6,0.6-0.9c3-5.7,8.6-5.4,12,0.4 c24.4,41.5,49,82.8,73.6,124.1c1.5,2.6,2.6,6,4.9,7.3c2.4,1.4,6,0.8,9.1,0.8c3.1,0,6.7,0.7,9.1-0.6c2.3-1.2,3.5-4.7,5.1-7.2 c11.5-18.4,22.9-36.8,34.3-55.3c0.4-0.6,0.8-1.3,1.2-1.9c3.4-5.3,7.7-5.3,11.1,0c1.9,2.9,3.7,5.9,5.7,9.2 c3.8-7.1,7.4-13.7,11-20.4c0.7-1.2,1.3-2.4,2.1-3.5c1.6-2.2,4.2-2.9,6.6-1.9c2.6,1.1,3.9,3.6,3.2,6.4c-0.3,1.2-0.9,2.3-1.5,3.4 c-4.4,8.2-8.8,16.5-13.3,24.7c-1,1.7-1,3.1,0.1,4.8c7.2,11.5,14.3,23.1,21.4,34.7c0.3,0.5,0.7,1,1,1.4 c20.3-1.2,59.1-11.1,72.2-18.5c-18.4-31.6-36.8-63.1-55.4-95.1c-3.9,7.2-7.5,13.9-11.1,20.6c-0.6,1.1-1.2,2.2-1.9,3.2 c-1.8,2.2-4.7,2.7-7.1,1.3c-2.4-1.4-3.4-4.1-2.4-6.8c0.3-0.9,0.8-1.8,1.3-2.7c5.1-9.5,10.3-19.1,15.4-28.6c1.2-2.2,2.6-3.9,5.4-4 c2.9-0.1,4.5,1.5,5.8,3.9c19.1,32.9,38.2,65.7,57.4,98.5c0.7,1.3,1.5,2.5,2.4,4c4-2.9,6.9-6,6.9-11.3c-0.1-46.9,0-93.8,0-140.7 c0-0.9,0-1.7,0-2.7c-0.5,0-0.9-0.1-1.2,0.1c-12.6,8.5-26.9,13-41.3,16.8c-25.1,6.6-50.8,10-76.7,12.1c-26.4,2.2-52.8,3.2-79.2,2.3 c-1,0-2,0-3-0.2c-2.7-0.4-4.5-2.4-4.7-5c-0.2-2.7,1.3-4.9,3.9-5.7c1.2-0.3,2.5-0.4,3.7-0.4c24.5,0.7,48.9-0.1,73.3-1.8 c3.7-0.3,7.4-0.7,11.4-1c0.1-1.5,0.2-2.8,0.2-4.1c0.2-16.3,0.5-32.7,0.4-49c-0.1-11.9,8.7-23.8,21.8-27.1 c5.2-1.3,10.4-0.4,15.6,0.4c17.6,3,35.1,6.4,51.8,12.8c6.8,2.6,13.5,5.8,19.9,9.3c3.4,1.9,6.5,4.7,9.3,7.4 c4.2,4.1,6.1,9.2,6.1,15.2c-0.1,53.6-0.1,107.3,0,160.9c0,7-2.5,12.6-7.4,17.3c-5.8,5.5-12.6,9.2-19.9,12.3 c-17.4,7.3-35.7,11.8-54.3,14.8c-14.6,2.4-29.4,4-44.1,5.9c-0.6,0.1-1.2,0.1-1.9,0.1c-4,0.2-6.6-1.9-6.8-5.3 c-0.2-3.2,2.1-5.5,5.9-5.9c4.7-0.5,9.4-1,14.1-1.5c0.5-0.1,1-0.1,2-0.3c-9.8-16-19.5-31.8-29.5-48.1 c-10.8,17.5-21.4,34.5-32.2,51.9c5.8,0,10.9,0,16.1,0c1.1,0,2.3-0.2,3.4-0.1c3.1,0.3,5.1,2.4,5.2,5.4c0.1,3-1.7,5.3-4.9,5.6 c-3.5,0.4-7,0.5-10.5,0.6c-23.7,0.9-47.4,0.6-71.1-0.8c-30.5-1.8-60.8-5.3-90.6-12.7c-12.5-3.1-24.8-6.8-36.2-12.7 c-3-1.5-5.9-3.3-8.6-5.2c-5.7-3.9-9.9-9-12-15.7C3.7,157.2,3.7,100.1,3.7,42.9z M29.5,225.3c2.5,1.2,4.7,2.3,7,3.3 c20.4,8.4,41.9,12.7,63.6,15.7c16,2.2,32.2,3.5,48.3,5.1c6,0.6,12.1,0.6,18.8,1c-24-40.4-47.6-80.2-71.5-120.4 C73.5,162,51.6,193.5,29.5,225.3z M273.4,81.6c1.1,0,1.8,0.1,2.6,0c6.5-0.9,13.1-1.7,19.6-2.7c17.2-2.7,34.3-6.2,50.8-12 c8.2-2.9,16.4-6.1,23.3-11.6c8.1-6.4,8.2-11.9-0.2-17.8c-4.8-3.4-10.2-6.3-15.6-8.6c-19.3-8-39.8-11.8-60.3-15.3 c-9.8-1.6-19.9,6.4-19.8,17.2c0.2,15.7-0.2,31.4-0.4,47.1C273.4,79.1,273.4,80.3,273.4,81.6z"></path> <path d="M160.6,150c0.1-19.2,15.5-34.6,34.7-34.6c19.2,0,34.7,15.4,34.7,34.6c0.1,19.3-15.8,35.1-34.9,34.9 C176,184.7,160.6,169.1,160.6,150z M218.9,150.1c0-13.1-10.4-23.5-23.5-23.5c-13.1,0-23.5,10.4-23.5,23.5 c0,13,10.6,23.6,23.5,23.6C208.3,173.7,218.9,163.1,218.9,150.1z"></path> </g> </g> </svg> 