<?xml version="1.0" encoding="UTF-8"?> <!-- Generator: Adobe Illustrator 25.4.1, SVG Export Plug-In . SVG Version: 6.00 Build 0) --> <svg xmlns="http://www.w3.org/2000/svg" xmlns:xlink="http://www.w3.org/1999/xlink" version="1.1" id="Layer_1" x="0px" y="0px" viewBox="0 0 385.4 364.8" style="enable-background:new 0 0 385.4 364.8;" xml:space="preserve"> <g> <g> <path d="M2.2,65.8c0.5-2.3,1-4.6,1.5-6.9C8,38.3,24,23.7,44.8,20.8c15.5-2.1,30.3,0.8,44.6,6.4c22.5,8.8,41.6,22.6,58.1,40 c19.3,20.5,23.8,50.1,12.2,75.8c-0.4,0.8-0.7,1.6-1.2,2.6c8.6,7.7,17.3,15.4,26.1,23.2c9.1-8.1,18-16,26.9-23.8 c-0.8-4.3-1.8-8.4-2.2-12.6c-1.4-14.7,3.1-27.5,12.9-38.5c1.1-1.2,2.2-2.3,3.4-3.5c28.1-28.1,56.3-56.3,84.4-84.4c1-1,1.9-2,3-2.8 c2.7-2,6.6-1.7,8.9,0.6c2.4,2.4,2.7,6,0.6,8.9c-0.8,1.1-1.8,2-2.8,3c-28.4,28.4-56.8,56.8-85.2,85.2c-5.6,5.6-9.6,12.1-11.1,19.9 c-1.4,7.2-0.7,14.1,2,20.9c2.4,5.9,1.9,7.5-2.8,11.7c-18.9,16.8-37.9,33.6-56.8,50.4c-6.3,5.6-8.9,5.4-14.5-0.9 c-7.6-8.6-15.2-17.2-22.9-25.7c-0.2-0.2-0.4-0.3-0.8-0.7c-0.9,0.3-1.9,0.7-2.9,1.1C97.5,189,72.1,185.4,50,165.8 c-19-17-33.2-37.8-42-61.9c-2.6-7-4.4-14.3-5.2-21.7c-0.1-0.7-0.4-1.4-0.6-2.1C2.2,75.3,2.2,70.5,2.2,65.8z M174.2,178.2 c-1-1-1.6-1.6-2.2-2.1c-8.3-7.4-16.6-14.7-24.9-22.1c-4.9-4.4-5.3-6.5-2.1-12.3c12.1-21.8,9-47.7-8.2-65.7 c-13.6-14.3-29.3-25.9-47.5-33.9c-13-5.7-26.5-9.3-41-7.8c-17.6,1.9-30.2,14.5-32,32.2c-1.1,11.6,1,22.6,4.9,33.4 c7.8,21.4,20.7,39.5,37.1,55c18.3,17.3,43.6,20.1,65.7,7.9c5.5-3,7.7-2.6,12,2.1c6.8,7.6,13.6,15.3,20.4,22.9c1,1.1,2,2.2,3.2,3.4 C164.5,186.9,169.2,182.7,174.2,178.2z"></path> <path d="M220.5,201.1c0.6,0.5,1.6,1.1,2.4,1.8c36.2,32.1,72.4,64.3,108.6,96.3c5.6,4.9,10.5,10.2,13.1,17.4 c5.7,15.6,0,33-13.8,42.2c-13.7,9.1-32.3,7.7-44.1-3.8c-5.6-5.5-10.6-11.6-15.8-17.4c-28.1-31.6-56.1-63.2-84.2-94.9 c-0.6-0.6-1-1.4-1.7-2.5c-1.5,1.6-2.5,2.7-3.5,3.8c-32,36-63.9,72-95.9,108c-11.7,13.2-30,16.5-44.8,8.2 c-21.4-12.1-24.8-41-6.7-57.6c14.9-13.6,30.2-26.9,45.3-40.3c11.8-10.4,23.5-20.9,35.3-31.3c0.8-0.7,1.7-1.5,2.6-2.1 c2.8-1.7,6.4-1.2,8.6,1.1c2.3,2.4,2.6,5.8,0.6,8.6c-1.1,1.5-2.6,2.7-4,3.9c-26.1,23.2-52.3,46.3-78.3,69.6 c-13,11.6-9.3,31.9,6.8,37.6c8.7,3.1,17.7,0.7,24.1-6.5c11.6-13,23.2-26.1,34.8-39.2c34.6-39,69.2-78,103.8-117 c6.9-7.7,13.7-15.5,20.6-23.2c3.6-4.1,5.4-4.4,10.5-2.4c15.4,6,29.2,3.2,40.9-8.4c28.6-28.4,57-56.9,85.5-85.4 c0.9-0.9,1.7-1.8,2.7-2.6c3-2.5,7-2.3,9.5,0.2c2.6,2.6,2.7,6.4,0.1,9.5c-0.5,0.6-1,1.1-1.6,1.6c-28.8,28.8-57.5,57.5-86.3,86.3 c-11,11-24.3,16.3-39.8,15.4c-3.7-0.2-7.3-1.2-11-2c-1.4-0.3-2.5-0.6-3.7,0.7c-6.7,7.7-13.5,15.3-20.3,23 C220.8,199.9,220.8,200.2,220.5,201.1z M194,230.1c0.9,1,1.5,1.8,2.2,2.5c24.6,27.7,49.2,55.4,73.8,83.1 c8.1,9.1,16.2,18.3,24.4,27.4c5.6,6.2,12.6,9,20.8,7.4c8.7-1.7,14.6-6.9,17.1-15.4c2.5-8.7,0.2-16.3-6.4-22.5 c-4.6-4.3-9.3-8.3-14-12.5c-32.7-29.1-65.5-58.1-98.2-87.2c-0.8-0.7-1.7-1.3-2.6-2.1C205.2,217.4,199.7,223.6,194,230.1z"></path> <path d="M357.2,41c2.6,0,4.6,1.1,5.9,3.3c1.4,2.3,1.4,4.8,0,7.1c-0.6,1-1.5,2-2.4,2.8c-22.8,22.8-45.6,45.6-68.5,68.4 c-0.8,0.8-1.6,1.6-2.5,2.2c-2.9,1.9-6.6,1.4-8.8-1.1c-2.1-2.4-2.3-5.9-0.4-8.6c0.5-0.7,1.1-1.3,1.8-1.9 c23.1-23.1,46.2-46.2,69.2-69.3C353.1,42.4,354.8,41,357.2,41z"></path> <path d="M344.8,29.4c-0.5,1-1,2.5-1.9,3.8c-0.7,1-1.7,1.8-2.5,2.7c-22.3,22.3-44.6,44.6-66.9,66.9c-1,1-1.9,2-3,2.8 c-2.9,2.1-6.4,1.8-8.8-0.7c-2.4-2.4-2.7-6-0.6-8.8c0.7-0.9,1.5-1.7,2.3-2.5C286,71,308.6,48.3,331.3,25.7c1-1,1.9-2,3.1-2.7 c2.3-1.5,4.7-1.4,7.1-0.1C343.6,24.2,344.6,26.3,344.8,29.4z"></path> </g> </g> </svg> 