<?xml version="1.0" encoding="UTF-8"?> <svg xmlns="http://www.w3.org/2000/svg" id="Capa_1" height="512" viewBox="0 0 512 512" width="512"><g><path d="m431 368.737c4.143 0 7.5-3.358 7.5-7.5v-343.737c0-9.649-7.851-17.5-17.5-17.5h-266c-4.142 0-7.5 3.358-7.5 7.5s3.358 7.5 7.5 7.5h266c1.379 0 2.5 1.122 2.5 2.5v73.589c-46.35-34.858-105.195-53.905-167.5-53.905s-121.15 19.048-167.5 53.905v-73.589c0-1.378 1.122-2.5 2.5-2.5h29c4.142 0 7.5-3.358 7.5-7.5s-3.358-7.5-7.5-7.5h-29c-9.649 0-17.5 7.851-17.5 17.5v477c0 9.649 7.851 17.5 17.5 17.5h330c9.649 0 17.5-7.851 17.5-17.5v-98.263c0-4.142-3.357-7.5-7.5-7.5s-7.5 3.358-7.5 7.5v98.263c0 1.378-1.121 2.5-2.5 2.5h-330c-1.378 0-2.5-1.122-2.5-2.5v-384.288c44.988-37.438 104.316-58.028 167.5-58.028 63.185 0 122.513 20.59 167.5 58.028v251.025c0 4.142 3.357 7.5 7.5 7.5z"></path><path d="m344.246 417.667c0-4.142-3.357-7.5-7.5-7.5h-161.492c-4.142 0-7.5 3.358-7.5 7.5s3.358 7.5 7.5 7.5h161.492c4.143 0 7.5-3.358 7.5-7.5z"></path><path d="m287.823 448.833c-4.143 0-7.5 3.358-7.5 7.5s3.357 7.5 7.5 7.5h21.464c4.143 0 7.5-3.358 7.5-7.5s-3.357-7.5-7.5-7.5z"></path><path d="m202.712 448.833c-4.142 0-7.5 3.358-7.5 7.5s3.358 7.5 7.5 7.5h50.288c4.143 0 7.5-3.358 7.5-7.5s-3.357-7.5-7.5-7.5z"></path><path d="m365.602 351.032c3.042-1.791 4.836-5.093 4.681-8.618-.154-3.509-2.221-6.626-5.393-8.135-4.283-2.037-8.653-4.253-13.043-6.617 2.566-4.718 4.61-9.436 6.604-14.038 1.525-3.52 3.104-7.16 4.886-10.721 1.883-3.762 1.096-8.232-1.959-11.122-3.062-2.897-7.58-3.437-11.242-1.345-60.704 34.693-127.567 34.692-188.272 0-3.662-2.094-8.18-1.554-11.243 1.345-3.054 2.891-3.84 7.361-1.957 11.124 1.782 3.559 3.359 7.199 4.885 10.719 1.995 4.603 4.039 9.32 6.604 14.038-4.388 2.362-8.757 4.579-13.042 6.616-3.172 1.508-5.238 4.625-5.393 8.135-.156 3.524 1.638 6.827 4.682 8.619 33.802 19.886 71.702 29.829 109.601 29.829 37.898 0 75.799-9.943 109.601-29.829zm-202.569-7.925c3.119-1.62 6.254-3.313 9.385-5.071 2.261-1.268 3.92-3.438 4.553-5.955.636-2.53.196-5.245-1.208-7.45-2.775-4.355-4.905-8.882-6.989-13.618 28.389 13.684 57.8 20.524 87.227 20.522 29.419-.002 58.848-6.843 87.228-20.523-2.084 4.736-4.214 9.263-6.99 13.62-1.403 2.203-1.843 4.917-1.207 7.447.632 2.516 2.291 4.687 4.551 5.955 3.132 1.758 6.269 3.453 9.387 5.072-58.207 30.341-127.733 30.341-185.937.001z"></path><path d="m217.927 120.328c-3.544.669-6.521 3.042-7.965 6.349l-51.739 118.523c-2.383 5.458-1.201 11.708 3.01 15.919 2.767 2.767 6.413 4.226 10.136 4.226 1.944 0 3.911-.398 5.783-1.215l118.521-51.739c3.305-1.442 5.679-4.419 6.35-7.962.67-3.543-.451-7.182-3.002-9.733l-71.364-71.363c-2.55-2.552-6.188-3.676-9.73-3.005zm-5.927 112.222c-2.568-13.977-7.554-27.397-14.674-39.436l9.609-22.013c12.458 15.081 20.677 33.907 23.242 53.514zm-39.396 17.198 17.014-38.975c3.979 8.82 6.753 18.259 8.207 27.965zm71.813-31.349c-3.929-23.32-14.824-45.456-30.853-62.482l7.738-17.727 62.859 62.859z"></path><path d="m295.964 159.907c1.598 3.823 5.992 5.623 9.813 4.026 11.979-5.011 27.275-1.922 36.372 7.344 1.468 1.496 3.409 2.246 5.352 2.246 1.896 0 3.794-.715 5.254-2.148 2.956-2.902 3-7.65.098-10.606-13.432-13.683-35.171-18.073-52.862-10.674-3.823 1.597-5.626 5.99-4.027 9.812z"></path><path d="m262.445 126.389c.945.395 1.926.583 2.891.583 2.934 0 5.72-1.732 6.922-4.608 7.399-17.691 3.01-39.43-10.674-52.863-2.955-2.902-7.705-2.857-10.606.098-2.902 2.956-2.858 7.705.098 10.606 9.265 9.096 12.354 24.392 7.344 36.371-1.599 3.821.204 8.214 4.025 9.813z"></path><path d="m304.588 125.264c1.919 0 3.839-.732 5.304-2.197l27.315-27.315c2.929-2.929 2.929-7.678 0-10.606-2.929-2.929-7.677-2.929-10.607 0l-27.315 27.315c-2.929 2.929-2.929 7.678 0 10.606 1.464 1.465 3.383 2.197 5.303 2.197z"></path></g></svg> 