<?xml version="1.0" encoding="UTF-8"?> <svg xmlns="http://www.w3.org/2000/svg" height="512pt" viewBox="0 -82 512 512" width="512pt"><path d="m272.402344 292.25c5.523437 0 10-4.476562 10-10v-170.226562c0-5.519532-4.476563-10-10-10-5.523438 0-10 4.480468-10 10v170.230468c0 5.519532 4.476562 9.996094 10 9.996094zm0 0"></path><path d="m337.839844 245.34375h113.773437c5.523438 0 10-4.476562 10-10 0-5.519531-4.476562-10-10-10h-113.773437c-5.523438 0-10 4.480469-10 10 0 5.523438 4.476562 10 10 10zm0 0"></path><path d="m337.839844 287.09375h113.773437c5.523438 0 10-4.480469 10-10 0-5.523438-4.476562-10-10-10h-113.773437c-5.523438 0-10 4.476562-10 10 0 5.519531 4.476562 10 10 10zm0 0"></path><path d="m158.171875 61.128906c1.601563 3.84375 5.53125 6.367188 9.703125 6.167969 3.996094-.195313 7.574219-2.84375 8.929688-6.605469 1.378906-3.820312.257812-8.234375-2.8125-10.90625-3.289063-2.863281-8.160157-3.269531-11.871094-.972656-4.101563 2.539062-5.804688 7.859375-3.949219 12.316406zm0 0"></path><path d="m195.496094 230.976562c-7.726563 7.25-21.316406 9.5625-30.933594 5.273438-3.214844-1.433594-6.40625-3.710938-9.789062-6.128906-4.175782-2.980469-8.496094-6.0625-13.761719-8.332032-5.363281-2.308593-11.230469-3.53125-17.4375-3.648437-.808594-.042969-1.621094-.066406-2.4375-.066406-25.378907 0-46.023438 20.648437-46.023438 46.027343 0 25.378907 20.644531 46.023438 46.023438 46.023438 25.378906 0 46.023437-20.644531 46.023437-46.023438 0-2.199218-.164062-4.355468-.460937-6.472656 2.839843.507813 5.738281.773438 8.652343.773438 12.375 0 24.933594-4.5 33.824219-12.839844 4.027344-3.777344 4.230469-10.105469.453125-14.132812-3.777344-4.03125-10.105468-4.230469-14.132812-.453126zm-74.359375 59.148438c-14.347657 0-26.023438-11.675781-26.023438-26.023438 0-14.351562 11.675781-26.027343 26.023438-26.027343 14.351562 0 26.027343 11.675781 26.027343 26.027343 0 14.347657-11.675781 26.023438-26.027343 26.023438zm0 0"></path><path d="m195.496094 195.765625c-7.726563 7.25-21.316406 9.566406-30.933594 5.277344-3.214844-1.433594-6.40625-3.714844-9.789062-6.128907-4.175782-2.980468-8.496094-6.066406-13.761719-8.335937-16.839844-7.25-38.820313-3.390625-52.261719 9.179687-4.035156 3.769532-4.25 10.097657-.476562 14.132813 3.773437 4.035156 10.097656 4.246094 14.132812.476563 7.652344-7.152344 21.132812-9.535157 30.695312-5.417969 3.296876 1.421875 6.578126 3.765625 10.050782 6.242187 4.035156 2.882813 8.210937 5.863282 13.261718 8.117188 5.875 2.621094 12.378907 3.882812 18.9375 3.882812 12.371094 0 24.933594-4.496094 33.824219-12.835937 4.027344-3.78125 4.230469-10.109375.453125-14.136719s-10.105468-4.230469-14.132812-.453125zm0 0"></path><path d="m195.496094 160.605469c-7.726563 7.246093-21.3125 9.566406-30.933594 5.277343-3.210938-1.433593-6.40625-3.714843-9.785156-6.128906-4.179688-2.980468-8.496094-6.066406-13.765625-8.335937-16.835938-7.253907-38.816407-3.390625-52.261719 9.175781-4.035156 3.769531-4.246094 10.097656-.476562 14.132812 3.773437 4.035157 10.101562 4.246094 14.132812.476563 7.652344-7.152344 21.132812-9.53125 30.695312-5.414063 3.300782 1.421876 6.578126 3.761719 10.050782 6.242188 4.039062 2.882812 8.214844 5.863281 13.261718 8.117188 5.878907 2.621093 12.378907 3.882812 18.9375 3.882812 12.375 0 24.9375-4.5 33.828126-12.839844 4.027343-3.777344 4.230468-10.105468.449218-14.132812-3.777344-4.03125-10.105468-4.230469-14.132812-.453125zm0 0"></path><path d="m403.230469 164.496094h47.382812c5.523438 0 10-4.480469 10-10v-47.386719c0-5.519531-4.476562-10-10-10h-47.382812c-5.519531 0-10 4.480469-10 10v47.386719c0 5.523437 4.480469 10 10 10zm10-47.382813h27.382812v27.382813h-27.382812zm0 0"></path><path d="m502 47.304688h-35.28125v-37.304688c0-5.523438-4.480469-10-10-10h-446.71875c-5.523438 0-10 4.476562-10 10v280.390625c0 5.519531 4.476562 10 10 10h35.28125v37.304687c0 5.523438 4.480469 10 10 10h446.71875c5.523438 0 10-4.476562 10-10v-280.390624c0-5.523438-4.476562-10-10-10zm-10 280.390624h-426.71875v-260.390624h59.855469c5.519531 0 10-4.480469 10-10 0-5.523438-4.480469-10-10-10h-69.796875c-.019532 0-.039063-.003907-.058594-.003907-5.523438 0-10 4.476563-10 10v223.089844h-25.28125v-260.390625h426.71875v27.304688h-238.75c-5.523438 0-10 4.476562-10 10 0 5.519531 4.476562 10 10 10h284.03125zm0 0"></path></svg> 