<?xml version="1.0" encoding="UTF-8"?> <!-- Generator: Adobe Illustrator 25.4.1, SVG Export Plug-In . SVG Version: 6.00 Build 0) --> <svg xmlns="http://www.w3.org/2000/svg" xmlns:xlink="http://www.w3.org/1999/xlink" version="1.1" id="Layer_1" x="0px" y="0px" viewBox="0 0 274 369.9" style="enable-background:new 0 0 274 369.9;" xml:space="preserve"> <g> <g> <path d="M136.5,5.1c28.7,0,57.4,0,86.1,0c1.1,0,2.2,0,3.4,0c3.9,0.2,6.2,2.4,6.3,6.4c0.1,6-0.1,12,0.1,18c0.1,2.9,0.5,6,1.3,8.8 c5.4,18.8,11.3,37.5,16.4,56.3c5.8,21.1,10,42.6,13,64.4c2.1,15.7,4,31.4,4.4,47.2c0.4,16.2,0.7,32.4,0.7,48.6 c0.1,25.8-0.1,51.6,0.1,77.5c0,7.5-3.3,8.5-8.2,9.2c-17.6,2.4-35.3,4.6-52.9,6.9c-15.9,2.1-31.8,4.4-47.7,6.5 c-14.1,1.9-28.1,3.6-42.2,5.5c-10.4,1.4-20.7,2.9-31.1,4.1c-2.6,0.3-5.5,0.1-8.1-0.7c-22.5-7.3-44.9-14.9-67.4-22.4 c-5.4-1.8-6.4-3.1-6.4-9c0-37.2-0.2-74.3,0.2-111.5c0.2-14.5,1.6-29.1,2.8-43.6c2.1-24,6.2-47.7,12.2-71 C24.6,86.6,30.4,67,36.3,47.5c2.7-8.8,4.7-17.5,4-26.8c-0.2-2.5,0.1-5-0.1-7.5c-0.5-5.8,3-8.4,8-8.2c8.3,0.3,16.7,0.1,25.1,0.1 C94.4,5.1,115.5,5.1,136.5,5.1z M175.2,41.7c0.5,1.7,0.7,2.9,1.1,4c1.8,5.4,3.6,10.9,5.5,16.3c2.7,8.2,5.5,16.3,8.1,24.5 c1.5,4.9-0.5,8.2-5.5,9c-4.2,0.7-8.4,1-12.6,1.4c-8.9,0.9-17.8,1.8-26.7,2.7c-6.3,0.6-12.6,1.3-19,1.8c-5.1,0.3-6.9-1.1-8.4-6 c-3.9-13-7.8-26-11.7-39c-1.5-4.9-3-9.7-4.5-14.5c-15.6,0-30.9,0-46.7,0c13.7,42.8,25.7,85.6,30.3,130.6 c54.4-5.4,108.3-10.8,162.2-16.1c0.8-0.1,1.6-0.5,2.4-0.8c-5.2-39.1-16.8-76.4-28.4-113.7C206,41.7,190.9,41.7,175.2,41.7z M255.6,281.3c0.1-0.9,0.2-1.4,0.2-1.9c-0.1-19.6-0.3-39.2-0.4-58.7c-0.1-16.2-1.6-32.4-3.3-48.5c-0.3-3.3-0.7-3.7-3.9-3.4 c-5.5,0.5-10.9,1.1-16.4,1.6c-9.3,0.9-18.6,1.9-27.9,2.8c-8.2,0.8-16.4,1.6-24.5,2.4c-8.8,0.9-17.6,1.9-26.4,2.8 c-8.7,0.9-17.4,1.6-26,2.5c-9.4,0.9-18.8,1.9-28.2,2.8c-4,0.4-8.1,0.9-11.6,1.3c0.5,17.9,1.1,35.2,1.3,52.5 c0.2,20.3,0.1,40.7,0.1,61c0,1.4,0,2.9,0,5C144.6,296.1,200,288.7,255.6,281.3z M88.8,350.6c3.6,0.9,162.6-20.6,166.8-21.9 c0-11.3,0-22.6,0-34.6c-55.8,7.4-111.2,14.8-166.8,22.2C88.8,328,88.8,339.3,88.8,350.6z M76.2,337.7c0-2.1,0-3.2,0-4.4 c0-20.5,0-40.9,0-61.4c0-27.7,0.5-55.4-2.2-82.9c-1-9.9-1.7-19.9-3.3-29.7c-2.8-16.7-6-33.3-9.6-49.8c-2.2-10.2-5.3-20.2-7.9-30.3 c-0.5,0.5-0.5,0.8-0.5,1.1c0,73.2,0,146.4,0,219.6c0,2,0.5,3.6,1.6,5.2c6.7,10,13.4,20.1,20.2,30.2 C74.8,335.8,75.2,336.4,76.2,337.7z M16.7,321.1c1.5-1.1,2.4-1.7,3.2-2.4c5.8-4.8,11.4-9.7,17.3-14.3c2.3-1.8,3.1-3.8,3.1-6.7 c-0.1-45.6-0.1-91.3-0.1-136.9c0-27.2,0-54.4,0-81.5c-0.6,0.8-0.9,1.7-1.1,2.7c-9.7,32.7-16.3,65.9-19.6,99.8 c-1.6,16.5-2.5,33-2.7,49.6c-0.2,28.9-0.1,57.8-0.1,86.8C16.7,318.8,16.7,319.6,16.7,321.1z M115.1,41.7c0.2,0.9,0.2,1.7,0.4,2.3 c4.1,13.8,8.3,27.6,12.5,41.4c0.9,2.9,1.3,3,4.7,2.6c9.3-1,18.5-1.9,27.8-2.8c4.9-0.5,9.8-1.1,14.8-1.7c-0.2-0.8-0.2-1.3-0.4-1.8 c-4.2-12.6-8.5-25.2-12.6-37.9c-0.7-2.2-2-2.5-3.9-2.5c-13.7,0-27.4,0-41.1,0C116.8,41.5,116,41.6,115.1,41.7z M53,17.7 c0,3.7,0,7.3,0,11.1c15.7,0,31.3,0,46.8,0c0-3.8,0-7.4,0-11.1C84.2,17.7,68.8,17.7,53,17.7z M112.7,28.8c15.9,0,31.4,0,47.1,0 c0-3.8,0-7.3,0-10.8c-4.9-0.8-44.4-0.6-47.1,0.2C112.7,21.7,112.7,25.1,112.7,28.8z M219.7,17.8c-15.9,0-31.4,0-47,0 c0,3.8,0,7.4,0,10.8c5,0.8,44.4,0.6,47-0.3C219.7,25,219.7,21.5,219.7,17.8z M23.3,332.3c14.5,4.8,28.5,9.5,42.5,14.2 c0.2-0.2,0.3-0.4,0.5-0.5c-7-10.5-14-20.9-21.2-31.7C37.7,320.3,30.8,326.1,23.3,332.3z"></path> <path d="M175.9,251.2c-2.3,2.9-4.1,5.7-6.3,8c-10.6,11.3-23.7,16.9-39.2,15.7c-14.2-1.1-25-10-27-24.1c-0.8-5.7,0.4-11.3,2.8-16.4 c7.6-15.9,20.5-24.6,37.7-27.2c10.4-1.5,19.6,1,28.5,7.9c0.3-0.4,0.7-0.7,0.8-1.1c5.9-13.7,21.7-21.2,38.4-13.1 c14.4,6.9,22.6,18.8,25.8,34.2c1.9,9.2,1,18.2-3.9,26.4c-5.4,9-13.6,13.5-24,13.2c-7.8-0.2-14.7-3.4-20.9-8.2 c-4.5-3.5-8.1-7.7-11.1-12.5C177.2,253.1,176.6,252.3,175.9,251.2z M166.7,238.3c-1.9,1-3.4,1.8-4.9,2.6 c-6.5,3.4-13.3,4.6-20.6,3.4c-2.4-0.4-4.9-1.1-7.3-1.4c-6-0.6-10.7,2.6-15.7,5.2c-2,1.1-2.2,2.3-1.4,4.3c2.1,5.5,6.5,8.3,12,9.6 c3.7,0.8,7.4,0.8,11.1,0.1c10.8-2.3,19.3-7.7,24.9-17.4C165.8,242.8,166.7,240.9,166.7,238.3z M212.5,262c6.4-1,9.9-4.7,11.8-10.1 c2-5.7,1.7-11.5,0.1-17.3c-2.7-9.5-8.2-16.9-17.1-21.7c-1.4-0.8-3-1.1-4.6-1.6c0.4,2.2,1.2,3.8,1.9,5.3c3.5,7.1,4.5,14.4,2.4,22.1 c-0.5,1.9-0.9,3.9-1,5.9C205.5,251.3,209.3,256.4,212.5,262z M188.9,213.9c-3.1,2.4-4.5,5.5-5.2,9c-2.3,11.2,1.3,20.8,8.4,29.4 c0.6,0.7,1.3,1.2,1.7,1.5c0-4.6-0.2-9.1,0.1-13.7c0.1-2.3,1-4.6,1.4-6.9C196.4,225.7,192.4,220.1,188.9,213.9z M163.6,225.3 c-8.3-11-33.3-4.5-38.8,5.2c4.5,0.1,9.3,0,14.1,0.2c2.2,0.1,4.4,1,6.6,1.2C152.5,232.7,157.9,228.6,163.6,225.3z"></path> </g> </g> </svg> 