<?xml version="1.0" encoding="UTF-8"?> <!-- Generator: Adobe Illustrator 25.4.1, SVG Export Plug-In . SVG Version: 6.00 Build 0) --> <svg xmlns="http://www.w3.org/2000/svg" xmlns:xlink="http://www.w3.org/1999/xlink" version="1.1" id="Layer_1" x="0px" y="0px" viewBox="0 0 389 385.6" style="enable-background:new 0 0 389 385.6;" xml:space="preserve"> <g> <g> <path d="M345.6,385.6c-1.2-0.3-2.4-0.7-3.5-1c-7.8-1.9-14-6.2-19.3-12.1c-24.1-26.3-48.3-52.5-72.4-78.8c-1.2-1.3-2.4-2.5-3.8-4.1 c-1,1-2,1.8-3,2.8c-17.1,17.1-34.2,34.2-51.3,51.3c-4.3,4.4-9.3,7.4-15.5,8.3c-8.1,1.1-15.2-1-21-6.5 c-6.4-6.1-12.6-12.4-18.8-18.7c-2.8-2.8-4.1-6.3-3.6-10.2c0.3-1.8-0.4-2.8-1.5-3.9c-2.6-2.5-5.2-5.1-7.7-7.7 c-8.6-8.7-8.6-19.9,0-28.6c9.4-9.5,18.9-18.9,28.3-28.3c41.1-41.1,82.2-82.2,123.3-123.3c6-6.1,12.9-8.4,21.1-5.7 c2.7,0.9,5.3,2.8,7.5,4.7c2.9,2.5,5.5,5.4,8.2,8.1c1.1,1.1,2.1,1.8,3.9,1.5c3.9-0.6,7.4,0.8,10.2,3.6c6.3,6.2,12.7,12.4,18.7,18.8 c9,9.7,9.1,24,0.5,34.1c-1.1,1.2-2.2,2.4-3.4,3.5c-16.7,16.7-33.3,33.3-50,50c-1,1-2.2,1.7-3.5,2.8c2.4,2.2,4.2,3.9,6,5.5 c26.2,24.1,52.4,48.1,78.4,72.2c14.2,13.1,16,33.1,4.6,47.9c-5.1,6.7-12,10.8-20.1,12.8c-0.8,0.2-1.6,0.5-2.4,0.8 C352.1,385.6,348.8,385.6,345.6,385.6z M146.5,317.9c6,6.2,12.1,12.6,18.4,18.8c2.2,2.2,5.2,2.8,8.3,2.8c4.5,0,7.7-2.4,10.7-5.4 c37.6-37.7,75.3-75.3,113-113c12.6-12.6,25.3-25.2,37.8-37.9c6.2-6.3,6.2-13.5,0-19.8c-3.9-4-7.9-8-11.9-11.9 c-1.7-1.7-3.5-3.4-5-4.9C260.5,203.9,203.4,261,146.5,317.9z M280.6,256.3c-8.4,8.4-16.5,16.5-24.7,24.7c0.4,0.5,1,1.3,1.7,2 c25.1,27.2,50.1,54.5,75.2,81.7c1,1.1,2.1,2.2,3.2,3.1c7.4,6,17.4,6.7,25.5,1.9c8.1-4.9,12.2-14.4,10.3-23.8 c-1.1-5.2-3.9-9.3-7.8-12.9c-21.6-19.8-43.1-39.7-64.7-59.5C293.1,267.7,286.8,261.9,280.6,256.3z M303.4,141.4 c-2.8-2.9-5.7-6.1-8.9-9c-2.4-2.1-5.7-1.9-8.2,0.1c-0.9,0.7-1.6,1.5-2.4,2.3c-49.7,49.7-99.3,99.3-149,149c-1,1-2,1.9-2.9,3 c-1.9,2.4-2.1,5.7-0.1,7.9c3,3.3,6.4,6.2,9.3,9C195.2,249.5,249.2,195.5,303.4,141.4z"></path> <path d="M2,18.1c0.3-0.7,0.6-1.4,0.8-2.1C5.6,7.6,12.5,2.5,21.3,2.4c0.9,0,1.7,0,2.6,0c113.2,0,226.3,0,339.5,0 c2.5,0,5,0.1,7.4,0.7c8.2,2,14,9.1,14.4,17.5c0.1,1.1,0,2.2,0,3.4c0,88.1,0,176.2,0,264.2c0,1.2,0.1,2.5-0.1,3.7 c-0.4,3.4-3.1,5.6-6.4,5.6c-3.3,0-5.9-2.3-6.2-5.8c-0.1-1.4-0.1-2.7-0.1-4.1c0-87.3,0-174.7,0-262c0-1.2,0-2.5,0-3.7 c-0.2-4.1-2.6-6.5-6.6-6.7c-0.7-0.1-1.5,0-2.2,0c-53.1,0-106.3,0-159.4,0c-1.2,0-2.5,0-4.2,0c0,1.8,0,3.2,0,4.7 c0,18.7,0,37.4,0,56.1c0,1.6,0,3.3-0.4,4.8c-0.6,2.8-3.2,4.7-6,4.7c-2.8,0-5.4-1.9-6-4.7c-0.3-1.6-0.4-3.2-0.4-4.8 c0-18.6,0-37.2,0-55.8c0-1.5,0-3,0-5c-1.6,0-2.9,0-4.3,0c-53.1,0-106.3,0-159.4,0c-6.7,0-8.8,2-8.8,8.7c0,88,0,175.9,0,263.9 c0,6.4,2.1,8.6,8.5,8.6c23.7,0,47.4,0,71.1,0c1.5,0,3,0,4.5,0.2c3.1,0.5,5.1,2.9,5.3,5.9c0.1,3.1-1.7,5.6-4.7,6.3 c-1.4,0.3-3,0.4-4.4,0.4c-23.8,0-47.7,0-71.5,0c-11.3,0-17.2-4.3-21-14.9c-0.1-0.2-0.3-0.4-0.5-0.6C2,201.7,2,109.9,2,18.1z"></path> <path d="M41.5,117.4c-3.4-0.1-5.4-1.1-6.6-3.2c-1.3-2.3-1.2-4.6,0.2-6.7c0.6-0.9,1.5-1.7,2.3-2.5c22.4-22.4,44.8-44.8,67.2-67.2 c0.7-0.7,1.4-1.5,2.2-2.1c2.5-1.9,6-1.7,8.2,0.4c2.3,2.2,2.7,5.4,0.9,8.2c-0.6,0.9-1.4,1.7-2.2,2.5c-22.5,22.5-45,45-67.5,67.4 C44.6,115.6,42.6,116.6,41.5,117.4z"></path> <path d="M40.8,79.5c-2.8-0.5-4.7-1.6-5.9-3.7c-1.2-2.1-1.2-4.3,0.1-6.4c0.4-0.6,0.9-1.2,1.4-1.7c10.4-10.4,20.7-20.8,31.2-31.1 c0.9-0.9,2.2-1.6,3.5-2c2.7-0.7,4.9,0.2,6.5,2.5c1.6,2.3,1.5,4.7,0.1,7c-0.4,0.7-1.1,1.4-1.7,2c-10,10-20,20.1-30.1,30.1 C44.4,77.5,42.5,78.4,40.8,79.5z"></path> <path d="M213,128c-0.3,3.4-1.4,5.3-3.6,6.4c-2.2,1.1-4.4,0.9-6.4-0.4c-0.8-0.5-1.5-1.3-2.2-2c-7.8-7.7-15.5-15.5-23.2-23.3 c-3.5-3.5-3.8-7.4-1-10.1c2.8-2.7,6.4-2.4,9.9,1c7.9,7.8,15.7,15.6,23.5,23.5C211.4,124.8,212.2,126.9,213,128z"></path> <path d="M175,166.9c-0.6,2.8-1.8,4.6-3.9,5.8c-2.1,1.2-4.4,1-6.4-0.3c-1-0.7-1.9-1.6-2.8-2.5c-7.5-7.5-15-15-22.4-22.5 c-0.7-0.7-1.4-1.4-2-2.2c-1.9-2.7-1.6-6,0.6-8.2c2.2-2.2,5.6-2.5,8.2-0.6c0.6,0.4,1.2,1,1.7,1.5c7.9,7.9,15.9,15.8,23.7,23.8 C173.1,163.2,173.9,165.2,175,166.9z"></path> <path d="M143.6,173.6c0.7,0.4,2.5,0.9,3.6,2c8.5,8.3,16.9,16.7,25.2,25.1c2.7,2.7,2.6,6.6,0.2,9.1c-2.5,2.6-6.2,2.8-9,0 c-8.6-8.4-17-16.9-25.4-25.4c-2-2-2.6-4.6-1.3-7.2C138,174.9,139.9,173.6,143.6,173.6z"></path> <path d="M251.2,127.9c-0.2,3.1-1.1,5-3.2,6.3c-2.1,1.2-4.3,1.2-6.4,0c-0.9-0.5-1.8-1.4-2.6-2.1c-7.8-7.7-15.5-15.5-23.2-23.2 c-0.6-0.6-1.3-1.2-1.8-1.9c-1.7-2.4-1.5-5.8,0.5-7.9c2.1-2.3,5.4-2.8,8.1-1c0.5,0.3,1,0.7,1.4,1.2c8.3,8.3,16.6,16.5,24.8,24.8 C250.1,125.1,250.6,126.9,251.2,127.9z"></path> <path d="M205.7,173.6c-0.9-0.5-2.7-1-3.9-2.2c-8.4-8.3-16.8-16.6-25.1-25.1c-2.7-2.8-2.8-6.5-0.4-9c2.5-2.7,6.4-2.8,9.3,0 c8.4,8.3,16.8,16.7,25.1,25.1c2.1,2.1,2.8,4.7,1.4,7.5C211,172.2,209,173.4,205.7,173.6z"></path> <path d="M136.5,205.1c-0.4,2.9-1.7,4.8-3.9,6c-2.3,1.2-4.8,1.1-6.6-0.7c-9-8.8-17.9-17.6-26.6-26.7c-2.4-2.5-1.8-6.1,0.6-8.4 c2.2-2.1,5.7-2.3,8.2-0.4c0.4,0.3,0.8,0.6,1.1,1c8.2,8.2,16.4,16.3,24.5,24.6C135,201.7,135.6,203.5,136.5,205.1z"></path> <path d="M128.7,250c-0.8-0.5-2.5-1-3.7-2.2c-8.4-8.2-16.6-16.5-24.9-24.8c-2.9-3-2.9-6.7-0.2-9.3c2.5-2.4,6.3-2.5,9.1,0.2 c8.4,8.3,16.8,16.7,25.1,25.1c2,2,2.6,4.5,1.4,7.2C134.4,248.5,132,250.1,128.7,250z"></path> <path d="M347,340.9c3.5,0.1,6.3,3,6.2,6.6c-0.1,3.6-2.9,6.2-6.6,6.1c-3.4-0.1-6.1-3-6.1-6.3C340.5,343.8,343.6,340.9,347,340.9z"></path> </g> </g> </svg> 